# xmcd CD database file
# Copyright (C) 1993-1998 Ti Kan
#
# Track frame offsets:
#	150
#	15147
#	30910
#	44785
#	57520
#	71630
#	88830
#	104132
#	119507
#	133462
#
# Disc length: 1962 seconds
#
# Revision: 1
# Processed by: cddbd v1.4b41PL1 Copyright (c) Steve Scherf et al.
# Submitted via: CDValet v3.31 - Copyright (c) 1997 Greg Leichner
#
DISCID=9307a80a
DTITLE=Tom Wopat - Learning To Love
DYEAR=1900
DGENRE=
TTITLE0=To Many Honky Tonks On My Way Home
TTITLE1=As I Live And Breathe
TTITLE2=Only When
TTITLE3=Learning to Love
TTITLE4=Back to the Well
TTITLE5=Red Hot Love
TTITLE6=Turn One Of Us Loose
TTITLE7=I've Been There
TTITLE8=Always A Blue Moon
TTITLE9=How The Other Half Lives
EXTD=33
EXTT0=
EXTT1=
EXTT2=
EXTT3=
EXTT4=
EXTT5=
EXTT6=
EXTT7=
EXTT8=
EXTT9=
PLAYORDER=
